<svg width="48" height="48" viewBox="0 0 48 48" fill="none" xmlns="http://www.w3.org/2000/svg">
<path d="M6 46.0783L6.88477 42.9333" stroke="black" stroke-width="1.5" stroke-linecap="round"/>
<path d="M34.8461 15.9261C33.269 14.2082 31.2786 13.0228 28.6123 12.7956C28.4567 12.7824 28.2954 12.7869 28.1396 12.7975C22.5055 13.1811 20.6536 8.19202 19.5541 4.18382C19.2924 3.22966 18.0552 3.22692 17.7873 4.17935L13.668 18.8216L8.50686 37.1675" stroke="black" stroke-width="1.5" stroke-linecap="round"/>
<path d="M37.98 20.8714C38.7254 22.4539 39.3747 24.127 40.0136 25.7515C40.351 26.6097 39.4561 27.4359 38.6502 26.9878C32.3358 23.4768 31.1674 20.9259 25.134 24.3099C21.281 26.471 18.9439 25.2727 16.5999 22.4747" stroke="black" stroke-width="1.5" stroke-linecap="round"/>
</svg>
