<svg width="48" height="48" viewBox="0 0 48 48" fill="none" xmlns="http://www.w3.org/2000/svg">
<path d="M23 13.5V12C23 10.3431 21.6569 9 20 9H10C8.34315 9 7 10.3431 7 12V22.5" stroke="#FED16A" stroke-width="1.5" stroke-linecap="round"/>
<path d="M23 19.5V30C23 31.6569 21.6569 33 20 33H10C8.34315 33 7 31.6569 7 30V28.5" stroke="#FED16A" stroke-width="1.5" stroke-linecap="round"/>
<path d="M33.4571 18.4435L33.9843 16.9048C34.5051 15.385 33.7361 13.7246 32.24 13.1389L25.5 10.5" stroke="#FED16A" stroke-width="1.5" stroke-linecap="round"/>
<path d="M31.7244 23.5L28.0466 34.2332C27.5343 35.7282 25.9501 36.5695 24.4246 36.1565L22 35.5" stroke="#FED16A" stroke-width="1.5" stroke-linecap="round"/>
<path d="M36.5 17.5L42.8686 23.5256C44.1049 24.6954 44.1215 26.6583 42.9052 27.8488L41.9171 28.8158" stroke="#FED16A" stroke-width="1.5" stroke-linecap="round"/>
<path d="M38 32.6496L30.0944 40.3872C28.9224 41.5342 27.0465 41.5277 25.8826 40.3723L24.5 39" stroke="#FED16A" stroke-width="1.5" stroke-linecap="round"/>
<path d="M12 25L13 22M18 25L17 22M13 22L14.0385 18.3653C14.3148 17.3983 15.6852 17.3983 15.9615 18.3653L17 22M13 22H17" stroke="#FED16A" stroke-width="1.5" stroke-linecap="round"/>
</svg>
