<svg width="48" height="48" viewBox="0 0 48 48" fill="none" xmlns="http://www.w3.org/2000/svg">
<path d="M8 25.5C8.69494 27.9277 9.56262 31.7582 9.60153 34.4428C9.61574 35.4226 9.96916 36.3617 10.8965 36.6785C12.5942 37.2585 16.1934 38 23.5 38C30.7002 38 34.6602 37.28 36.6761 36.704C37.8222 36.3765 38.3599 35.2345 38.4099 34.0437C38.5213 31.3893 39.3388 27.8097 40 25.5M12 33C12 33 13.5 34 23.7887 34C34.0774 34 36 33 36 33" stroke="#FED16A" stroke-width="1.5" stroke-linecap="round"/>
<path d="M20.5 20.5C19.8393 24.1336 18.3323 29.0945 14.7938 28.0371C13.2634 27.5798 11.6317 26.3986 10 25" stroke="#FED16A" stroke-width="1.5" stroke-linecap="round"/>
<path d="M27.5 20.5C28.1607 24.1336 29.6677 29.0945 33.2062 28.0371C34.7366 27.5798 36.3683 26.3986 38 25" stroke="#FED16A" stroke-width="1.5" stroke-linecap="round"/>
<path d="M23.3955 10.1592C23.4703 9.92885 23.7963 9.92885 23.8711 10.1592L24.5811 12.3447C24.6948 12.6949 25.0214 12.9326 25.3896 12.9326H27.6885C27.9304 12.9329 28.0308 13.2425 27.835 13.3848L25.9756 14.7354C25.6777 14.9518 25.5532 15.3363 25.667 15.6865L26.377 17.8721C26.4518 18.1024 26.1881 18.2937 25.9922 18.1514L24.1328 16.8008L24.0166 16.7295C23.776 16.6077 23.4907 16.6079 23.25 16.7295L23.1328 16.8008L21.2734 18.1514C21.0775 18.2937 20.8138 18.1024 20.8887 17.8721L21.5996 15.6865C21.7134 15.3363 21.5879 14.9518 21.29 14.7354L19.4307 13.3848C19.2347 13.2424 19.3359 12.9326 19.5781 12.9326H21.876C22.2442 12.9326 22.5708 12.695 22.6846 12.3447L23.3955 10.1592Z" stroke="#FED16A" stroke-width="1.5"/>
<circle cx="7.55274" cy="21.0527" r="2.25" transform="rotate(1.01642 7.55274 21.0527)" stroke="#FED16A" stroke-width="1.5"/>
<circle cx="40.0527" cy="21.0527" r="2.25" transform="rotate(1.01642 40.0527 21.0527)" stroke="#FED16A" stroke-width="1.5"/>
</svg>
