<svg width="48" height="48" viewBox="0 0 48 48" fill="none" xmlns="http://www.w3.org/2000/svg">
<path d="M37.2093 39.5H38.7224C41.0318 39.5 42.4752 37 41.3205 35L26.5981 9.5C25.4434 7.5 22.5566 7.5 21.4019 9.5L20.2472 11.5" stroke="#FFCE6A" stroke-width="1.5" stroke-linecap="round"/>
<path d="M31 39.5H9.26322C6.95701 39.5 5.51324 37.0062 6.66156 35.0062L17 17" stroke="#FFCE6A" stroke-width="1.5" stroke-linecap="round"/>
<path d="M24.948 27.6746L26.1561 18.9762C26.3378 17.6675 25.3213 16.5 24 16.5C22.6787 16.5 21.6622 17.6675 21.8439 18.9762L23.052 27.6746C23.1177 28.1478 23.5223 28.5 24 28.5C24.4777 28.5 24.8823 28.1477 24.948 27.6746Z" stroke="#FFCE6A" stroke-width="1.5"/>
<path d="M24 31.75C24.9665 31.75 25.75 32.5335 25.75 33.5C25.75 34.4665 24.9665 35.25 24 35.25C23.0335 35.25 22.25 34.4665 22.25 33.5C22.25 32.5335 23.0335 31.75 24 31.75Z" stroke="#FFCE6A" stroke-width="1.5"/>
</svg>
