<svg width="48" height="48" viewBox="0 0 48 48" fill="none" xmlns="http://www.w3.org/2000/svg">
<path d="M15 36.6187V40.084C15 41.4615 15.9377 42.6723 17.2849 42.9594C22.2442 44.0161 25.7738 44.0474 30.7373 42.9688C32.0745 42.6782 33 41.4719 33 40.1036V36.6187C33 32.3804 31.6536 28.2517 29.155 24.8282L28.8465 24.4055C26.4499 21.1217 21.5501 21.1217 19.1535 24.4055L18.845 24.8282C16.3464 28.2517 15 32.3804 15 36.6187Z" stroke="#FFCE6A" stroke-width="1.5"/>
<circle cx="24" cy="13.7649" r="5.25" stroke="#FFCE6A" stroke-width="1.5"/>
<path d="M34 25.6711L34.5233 24.9163C36.2794 22.3834 40.0017 22.3174 41.8464 24.7866C42.9397 26.25 43.7572 27.9002 44.259 29.6566L44.5 30.5" stroke="#FFCE6A" stroke-width="1.5" stroke-linecap="round"/>
<path d="M45 36.5V37.391C45 38.7452 44.0958 39.9482 42.7715 40.2308C40.3623 40.7449 38.3751 40.8836 36.2115 40.6653" stroke="#FFCE6A" stroke-width="1.5" stroke-linecap="round"/>
<circle cx="37.5" cy="16.2649" r="3.75" stroke="#FFCE6A" stroke-width="1.5"/>
<path d="M5 29.5L4.49419 30.6381C3.50903 32.8547 3 35.2533 3 37.679C3 38.861 3.79527 39.9052 4.94997 40.1579C7.24796 40.661 9.15205 40.8555 11.1608 40.7259" stroke="#FFCE6A" stroke-width="1.5" stroke-linecap="round"/>
<path d="M8 24L8.35526 23.6447C9.31161 22.6884 10.81 22.54 11.9354 23.2902C12.6363 23.7575 13.2244 24.3751 13.657 25.098L14 25.6711" stroke="#FFCE6A" stroke-width="1.5" stroke-linecap="round"/>
<circle cx="10.5" cy="16.2649" r="3.75" stroke="#FFCE6A" stroke-width="1.5"/>
</svg>
