<svg width="48" height="48" viewBox="0 0 48 48" fill="none" xmlns="http://www.w3.org/2000/svg">
<path d="M17 30V31.5V32.0917C17 32.6839 17.2036 33.2661 17.7621 33.4633C20.3773 34.3867 28.3905 34.3437 30.1655 33.3342C30.4458 33.1748 30.5 32.8356 30.5 32.5132V31.5V30" stroke="#FFCE6A" stroke-width="1.5" stroke-linecap="round"/>
<path d="M18.5 13H30M18.5 13H13.5C11.8431 13 10.5 14.3431 10.5 16M18.5 13C18.5 11.3431 19.8431 10 21.5 10H23H27C28.6569 10 30 11.3431 30 13M30 13H34C35.6569 13 37 14.3431 37 16M37 16H37.5C39.1569 16 40.5 17.3431 40.5 19V22C40.5 23.6569 39.1569 25 37.5 25H37M37 16V25M37 25C37 26.3807 35.8807 27.5 34.5 27.5H30.5H17H13C11.6193 27.5 10.5 26.3807 10.5 25M10.5 25V23M10.5 25H10C8.34315 25 7 23.6569 7 22V19C7 17.3431 8.34315 16 10 16H10.5M10.5 16.5V16" stroke="#FFCE6A" stroke-width="1.5" stroke-linecap="round"/>
<path d="M39 40V40.1151C39 41.0213 38.6822 41.8923 37.8187 42.1672C32.7049 43.7949 13.3295 43.7774 8.52277 42.1146C7.77053 41.8544 7.5 41.0795 7.5 40.2835V38.5C7.5 34.634 10.634 31.5 14.5 31.5" stroke="#FFCE6A" stroke-width="1.5" stroke-linecap="round"/>
<path d="M38.5 34.5C37.5531 32.9219 35.9332 31.8667 34.107 31.6384L33 31.5" stroke="#FFCE6A" stroke-width="1.5" stroke-linecap="round"/>
<path d="M24.5 5.75C25.1904 5.75 25.75 6.30964 25.75 7C25.75 7.69036 25.1904 8.25 24.5 8.25C23.8096 8.25 23.25 7.69036 23.25 7C23.25 6.30964 23.8096 5.75 24.5 5.75Z" stroke="#FFCE6A" stroke-width="1.5"/>
<circle cx="19" cy="19" r="2.25" stroke="#FFCE6A" stroke-width="1.5"/>
<circle cx="29.5" cy="19" r="2.25" stroke="#FFCE6A" stroke-width="1.5"/>
<path d="M21 24C22.5 25.5 25.5 25.5 27 24" stroke="#FFCE6A" stroke-width="1.5" stroke-linecap="round"/>
</svg>
