<svg width="48" height="48" viewBox="0 0 48 48" fill="none" xmlns="http://www.w3.org/2000/svg">
<path d="M16 21H29.5M16 26.5H29.5M16 32.5H29.5" stroke="#FFCE6A" stroke-width="1.5" stroke-linecap="round"/>
<path d="M11.5 34.5V35.5C11.5 37.1569 12.8431 38.5 14.5 38.5H32.5" stroke="#FFCE6A" stroke-width="1.5" stroke-linecap="round"/>
<path d="M11.5 28.2677V18.5" stroke="#FFCE6A" stroke-width="1.5" stroke-linecap="round"/>
<path d="M34 16.8134V13C34 11.3431 32.6569 10 31 10C29.3431 10 28 11.3431 28 13C28 14.6569 26.6569 16 25 16H11.5H10C8.34315 16 7 14.6569 7 13C7 11.3431 8.34315 10 10 10H26.5" stroke="#FFCE6A" stroke-width="1.5" stroke-linecap="round"/>
<path d="M34 22.7819V32.5V35.5C34 37.1569 35.3431 38.5 37 38.5C38.6569 38.5 40 37.1569 40 35.5C40 33.8431 38.6569 32.5 37 32.5H36.5" stroke="#FFCE6A" stroke-width="1.5" stroke-linecap="round"/>
</svg>
