<svg width="48" height="48" viewBox="0 0 48 48" fill="none" xmlns="http://www.w3.org/2000/svg">
<path d="M26.5 33L25.9804 33.5196C25.6728 33.8272 25.2556 34 24.8206 34C23.3795 34 22.6389 32.2749 23.6314 31.2301L29.8457 24.6887C30.2124 24.3028 30.2124 23.6972 29.8457 23.3113L23.617 16.7548C22.6299 15.7157 23.3665 14 24.7997 14C25.2468 14 25.6744 14.1835 25.9823 14.5077L32.9861 21.8801C34.1066 23.0596 34.0828 24.9172 32.9324 26.0676L30 29" stroke="black" stroke-width="1.5" stroke-linecap="round"/>
<path d="M20.5 19L23.1442 21.9381C24.1918 23.102 24.1679 24.8759 23.0894 26.0112L15.9823 33.4923C15.6744 33.8165 15.2468 34 14.7997 34C13.3665 34 12.6299 32.2843 13.617 31.2452L19.8457 24.6887C20.2124 24.3028 20.2124 23.6972 19.8457 23.3113L13.6314 16.7699C12.6389 15.7251 13.3795 14 14.8206 14C15.2556 14 15.6728 14.1728 15.9804 14.4804L16.5 15" stroke="black" stroke-width="1.5" stroke-linecap="round"/>
</svg>
